<mxfile host="Electron" modified="2025-04-13T11:50:07.082Z" agent="Mozilla/5.0 (Windows NT 10.0; Win64; x64) AppleWebKit/537.36 (KHTML, like Gecko) draw.io/21.6.8 Chrome/114.0.5735.289 Electron/25.5.0 Safari/537.36" etag="z5xadLCYfNQ-pfKbzGtH" version="21.6.8" type="device">
  <diagram name="Страница — 1" id="RGTgihlxXmJJw-yEGguv">
    <mxGraphModel dx="1098" dy="1655" grid="1" gridSize="10" guides="1" tooltips="1" connect="1" arrows="1" fold="1" page="1" pageScale="1" pageWidth="1169" pageHeight="827" math="0" shadow="0">
      <root>
        <mxCell id="0" />
        <mxCell id="1" parent="0" />
        <mxCell id="I4A1Ht3evNtOGpzTNkZh-1" style="edgeStyle=orthogonalEdgeStyle;rounded=0;orthogonalLoop=1;jettySize=auto;html=1;exitX=0.5;exitY=1;exitDx=0;exitDy=0;entryX=0.5;entryY=0;entryDx=0;entryDy=0;" edge="1" parent="1" source="I4A1Ht3evNtOGpzTNkZh-2" target="I4A1Ht3evNtOGpzTNkZh-8">
          <mxGeometry relative="1" as="geometry" />
        </mxCell>
        <mxCell id="I4A1Ht3evNtOGpzTNkZh-2" value="Клиент" style="html=1;dashed=0;whiteSpace=wrap;" vertex="1" parent="1">
          <mxGeometry x="20" y="-510" width="100" height="50" as="geometry" />
        </mxCell>
        <mxCell id="I4A1Ht3evNtOGpzTNkZh-3" style="edgeStyle=orthogonalEdgeStyle;rounded=0;orthogonalLoop=1;jettySize=auto;html=1;exitX=0.5;exitY=1;exitDx=0;exitDy=0;entryX=0.5;entryY=0;entryDx=0;entryDy=0;" edge="1" parent="1" source="I4A1Ht3evNtOGpzTNkZh-6" target="I4A1Ht3evNtOGpzTNkZh-11">
          <mxGeometry relative="1" as="geometry" />
        </mxCell>
        <mxCell id="I4A1Ht3evNtOGpzTNkZh-4" style="edgeStyle=orthogonalEdgeStyle;rounded=0;orthogonalLoop=1;jettySize=auto;html=1;exitX=1;exitY=0.5;exitDx=0;exitDy=0;entryX=0;entryY=0.25;entryDx=0;entryDy=0;" edge="1" parent="1" source="I4A1Ht3evNtOGpzTNkZh-6" target="I4A1Ht3evNtOGpzTNkZh-33">
          <mxGeometry relative="1" as="geometry" />
        </mxCell>
        <mxCell id="I4A1Ht3evNtOGpzTNkZh-5" style="edgeStyle=orthogonalEdgeStyle;rounded=0;orthogonalLoop=1;jettySize=auto;html=1;exitX=0.75;exitY=1;exitDx=0;exitDy=0;entryX=0;entryY=0.25;entryDx=0;entryDy=0;" edge="1" parent="1" source="I4A1Ht3evNtOGpzTNkZh-6" target="I4A1Ht3evNtOGpzTNkZh-35">
          <mxGeometry relative="1" as="geometry">
            <Array as="points">
              <mxPoint x="225" y="-430" />
              <mxPoint x="290" y="-430" />
              <mxPoint x="290" y="-310" />
            </Array>
          </mxGeometry>
        </mxCell>
        <mxCell id="I4A1Ht3evNtOGpzTNkZh-6" value="Ресепшен" style="html=1;dashed=0;whiteSpace=wrap;" vertex="1" parent="1">
          <mxGeometry x="150" y="-510" width="100" height="50" as="geometry" />
        </mxCell>
        <mxCell id="I4A1Ht3evNtOGpzTNkZh-7" style="edgeStyle=orthogonalEdgeStyle;rounded=0;orthogonalLoop=1;jettySize=auto;html=1;exitX=1;exitY=0.5;exitDx=0;exitDy=0;entryX=0;entryY=0.5;entryDx=0;entryDy=0;" edge="1" parent="1" source="I4A1Ht3evNtOGpzTNkZh-9" target="I4A1Ht3evNtOGpzTNkZh-12">
          <mxGeometry relative="1" as="geometry">
            <mxPoint x="325" y="-485" as="sourcePoint" />
          </mxGeometry>
        </mxCell>
        <mxCell id="I4A1Ht3evNtOGpzTNkZh-8" value="1" style="swimlane;fontStyle=0;childLayout=stackLayout;horizontal=1;startSize=20;fillColor=#ffffff;horizontalStack=0;resizeParent=1;resizeParentMax=0;resizeLast=0;collapsible=0;marginBottom=0;swimlaneFillColor=#ffffff;" vertex="1" parent="1">
          <mxGeometry x="20" y="-415" width="100" height="80" as="geometry" />
        </mxCell>
        <mxCell id="I4A1Ht3evNtOGpzTNkZh-9" value="Сбор информации о клиенте" style="html=1;dashed=0;whiteSpace=wrap;shape=partialRectangle;right=0;" vertex="1" parent="I4A1Ht3evNtOGpzTNkZh-8">
          <mxGeometry y="20" width="100" height="60" as="geometry" />
        </mxCell>
        <mxCell id="I4A1Ht3evNtOGpzTNkZh-10" value="Ф. И. О., &lt;br style=&quot;font-size: 12px;&quot;&gt;дата рождения, телефон электронная почта&lt;br style=&quot;border-color: var(--border-color); font-size: 12px;&quot;&gt;&lt;div&gt;+ (необязательно) адрес прописки, место работы / учёбы,&amp;nbsp;а также хронические заболевания&lt;/div&gt;" style="html=1;dashed=0;whiteSpace=wrap;shape=partialRectangle;right=0;fontSize=12;fillColor=#f8cecc;strokeColor=#b85450;" vertex="1" parent="1">
          <mxGeometry x="140" y="-300" width="120" height="160" as="geometry" />
        </mxCell>
        <mxCell id="I4A1Ht3evNtOGpzTNkZh-11" value="2.1" style="swimlane;fontStyle=0;childLayout=stackLayout;horizontal=1;startSize=20;fillColor=#ffffff;horizontalStack=0;resizeParent=1;resizeParentMax=0;resizeLast=0;collapsible=0;marginBottom=0;swimlaneFillColor=#ffffff;" vertex="1" parent="1">
          <mxGeometry x="150" y="-415" width="100" height="80" as="geometry" />
        </mxCell>
        <mxCell id="I4A1Ht3evNtOGpzTNkZh-12" value="Ввод информации о клиенте" style="html=1;dashed=0;whiteSpace=wrap;shape=partialRectangle;right=0;" vertex="1" parent="I4A1Ht3evNtOGpzTNkZh-11">
          <mxGeometry y="20" width="100" height="60" as="geometry" />
        </mxCell>
        <mxCell id="I4A1Ht3evNtOGpzTNkZh-13" style="edgeStyle=orthogonalEdgeStyle;rounded=0;orthogonalLoop=1;jettySize=auto;html=1;exitX=0.5;exitY=1;exitDx=0;exitDy=0;entryX=0.5;entryY=0;entryDx=0;entryDy=0;" edge="1" parent="1" source="I4A1Ht3evNtOGpzTNkZh-12" target="I4A1Ht3evNtOGpzTNkZh-10">
          <mxGeometry relative="1" as="geometry">
            <mxPoint x="280" y="-280" as="targetPoint" />
          </mxGeometry>
        </mxCell>
        <mxCell id="I4A1Ht3evNtOGpzTNkZh-14" style="edgeStyle=orthogonalEdgeStyle;rounded=0;orthogonalLoop=1;jettySize=auto;html=1;entryX=0.5;entryY=1;entryDx=0;entryDy=0;exitX=0.5;exitY=0;exitDx=0;exitDy=0;" edge="1" parent="1" source="I4A1Ht3evNtOGpzTNkZh-15" target="I4A1Ht3evNtOGpzTNkZh-19">
          <mxGeometry relative="1" as="geometry">
            <mxPoint x="760" y="-420" as="sourcePoint" />
            <mxPoint x="590" y="-460" as="targetPoint" />
          </mxGeometry>
        </mxCell>
        <mxCell id="I4A1Ht3evNtOGpzTNkZh-15" value="3" style="swimlane;fontStyle=0;childLayout=stackLayout;horizontal=1;startSize=20;fillColor=#ffffff;horizontalStack=0;resizeParent=1;resizeParentMax=0;resizeLast=0;collapsible=0;marginBottom=0;swimlaneFillColor=#ffffff;" vertex="1" parent="1">
          <mxGeometry x="540" y="-415" width="100" height="80" as="geometry" />
        </mxCell>
        <mxCell id="I4A1Ht3evNtOGpzTNkZh-16" value="Сохранение/обновление информации о клиенте" style="html=1;dashed=0;whiteSpace=wrap;shape=partialRectangle;right=0;" vertex="1" parent="I4A1Ht3evNtOGpzTNkZh-15">
          <mxGeometry y="20" width="100" height="60" as="geometry" />
        </mxCell>
        <mxCell id="I4A1Ht3evNtOGpzTNkZh-17" style="edgeStyle=orthogonalEdgeStyle;rounded=0;orthogonalLoop=1;jettySize=auto;html=1;exitX=1;exitY=0.5;exitDx=0;exitDy=0;entryX=0;entryY=0.5;entryDx=0;entryDy=0;" edge="1" parent="1" source="I4A1Ht3evNtOGpzTNkZh-12" target="I4A1Ht3evNtOGpzTNkZh-16">
          <mxGeometry relative="1" as="geometry" />
        </mxCell>
        <mxCell id="I4A1Ht3evNtOGpzTNkZh-18" style="edgeStyle=orthogonalEdgeStyle;rounded=0;orthogonalLoop=1;jettySize=auto;html=1;exitX=0.5;exitY=1;exitDx=0;exitDy=0;entryX=0.5;entryY=0;entryDx=0;entryDy=0;" edge="1" parent="1" source="I4A1Ht3evNtOGpzTNkZh-16" target="I4A1Ht3evNtOGpzTNkZh-21">
          <mxGeometry relative="1" as="geometry">
            <mxPoint x="590" y="-300" as="targetPoint" />
          </mxGeometry>
        </mxCell>
        <mxCell id="I4A1Ht3evNtOGpzTNkZh-19" value="Сетевое файловое хранилище&amp;nbsp;" style="shape=cylinder;whiteSpace=wrap;html=1;boundedLbl=1;backgroundOutline=1;" vertex="1" parent="1">
          <mxGeometry x="540" y="-540" width="100" height="80" as="geometry" />
        </mxCell>
        <mxCell id="I4A1Ht3evNtOGpzTNkZh-20" style="edgeStyle=orthogonalEdgeStyle;rounded=0;orthogonalLoop=1;jettySize=auto;html=1;exitX=0.5;exitY=1;exitDx=0;exitDy=0;entryX=0.5;entryY=0;entryDx=0;entryDy=0;" edge="1" parent="1" source="I4A1Ht3evNtOGpzTNkZh-21" target="I4A1Ht3evNtOGpzTNkZh-25">
          <mxGeometry relative="1" as="geometry" />
        </mxCell>
        <mxCell id="I4A1Ht3evNtOGpzTNkZh-21" value="журналы приёма пациентов, учёт пациентов и учёт оплаты услуг" style="html=1;dashed=0;whiteSpace=wrap;shape=partialRectangle;right=0;left=0;" vertex="1" parent="1">
          <mxGeometry x="540" y="-300" width="100" height="70" as="geometry" />
        </mxCell>
        <mxCell id="I4A1Ht3evNtOGpzTNkZh-22" value="&lt;h1&gt;Посещение клиентом клиники&lt;/h1&gt;" style="text;html=1;strokeColor=none;fillColor=none;spacing=5;spacingTop=-20;whiteSpace=wrap;overflow=hidden;rounded=0;" vertex="1" parent="1">
          <mxGeometry x="30" y="-770" width="370" height="40" as="geometry" />
        </mxCell>
        <mxCell id="I4A1Ht3evNtOGpzTNkZh-23" style="edgeStyle=orthogonalEdgeStyle;rounded=0;orthogonalLoop=1;jettySize=auto;html=1;exitX=0.5;exitY=1;exitDx=0;exitDy=0;entryX=0.5;entryY=0;entryDx=0;entryDy=0;" edge="1" parent="1" source="I4A1Ht3evNtOGpzTNkZh-24" target="I4A1Ht3evNtOGpzTNkZh-26">
          <mxGeometry relative="1" as="geometry" />
        </mxCell>
        <mxCell id="I4A1Ht3evNtOGpzTNkZh-24" value="Медицинские специалисты" style="html=1;dashed=0;whiteSpace=wrap;" vertex="1" parent="1">
          <mxGeometry x="690" y="-510" width="100" height="50" as="geometry" />
        </mxCell>
        <mxCell id="I4A1Ht3evNtOGpzTNkZh-25" value="Медицинские карты, результаты анализов" style="html=1;dashed=0;whiteSpace=wrap;shape=partialRectangle;right=0;fontSize=12;fillColor=#f8cecc;strokeColor=#b85450;" vertex="1" parent="1">
          <mxGeometry x="530" y="-190" width="120" height="50" as="geometry" />
        </mxCell>
        <mxCell id="I4A1Ht3evNtOGpzTNkZh-26" value="4" style="swimlane;fontStyle=0;childLayout=stackLayout;horizontal=1;startSize=20;fillColor=#ffffff;horizontalStack=0;resizeParent=1;resizeParentMax=0;resizeLast=0;collapsible=0;marginBottom=0;swimlaneFillColor=#ffffff;" vertex="1" parent="1">
          <mxGeometry x="690" y="-415" width="100" height="80" as="geometry" />
        </mxCell>
        <mxCell id="I4A1Ht3evNtOGpzTNkZh-27" value="Прием клиента и внесение изменений в мед. карты" style="html=1;dashed=0;whiteSpace=wrap;shape=partialRectangle;right=0;" vertex="1" parent="I4A1Ht3evNtOGpzTNkZh-26">
          <mxGeometry y="20" width="100" height="60" as="geometry" />
        </mxCell>
        <mxCell id="I4A1Ht3evNtOGpzTNkZh-28" style="edgeStyle=orthogonalEdgeStyle;rounded=0;orthogonalLoop=1;jettySize=auto;html=1;exitX=1;exitY=0.25;exitDx=0;exitDy=0;entryX=0;entryY=0.25;entryDx=0;entryDy=0;" edge="1" parent="1" source="I4A1Ht3evNtOGpzTNkZh-16" target="I4A1Ht3evNtOGpzTNkZh-27">
          <mxGeometry relative="1" as="geometry" />
        </mxCell>
        <mxCell id="I4A1Ht3evNtOGpzTNkZh-29" value="Медицинские карты, результаты анализов" style="html=1;dashed=0;whiteSpace=wrap;shape=partialRectangle;right=0;fontSize=12;fillColor=#f8cecc;strokeColor=#b85450;" vertex="1" parent="1">
          <mxGeometry x="680" y="-300" width="120" height="50" as="geometry" />
        </mxCell>
        <mxCell id="I4A1Ht3evNtOGpzTNkZh-30" style="edgeStyle=orthogonalEdgeStyle;rounded=0;orthogonalLoop=1;jettySize=auto;html=1;exitX=0.5;exitY=1;exitDx=0;exitDy=0;entryX=0.5;entryY=0;entryDx=0;entryDy=0;" edge="1" parent="1" source="I4A1Ht3evNtOGpzTNkZh-27" target="I4A1Ht3evNtOGpzTNkZh-29">
          <mxGeometry relative="1" as="geometry" />
        </mxCell>
        <mxCell id="I4A1Ht3evNtOGpzTNkZh-31" style="edgeStyle=orthogonalEdgeStyle;rounded=0;orthogonalLoop=1;jettySize=auto;html=1;exitX=0.5;exitY=0;exitDx=0;exitDy=0;entryX=0.5;entryY=1;entryDx=0;entryDy=0;" edge="1" parent="1" source="I4A1Ht3evNtOGpzTNkZh-32" target="I4A1Ht3evNtOGpzTNkZh-34">
          <mxGeometry relative="1" as="geometry" />
        </mxCell>
        <mxCell id="I4A1Ht3evNtOGpzTNkZh-32" value="2.2" style="swimlane;fontStyle=0;childLayout=stackLayout;horizontal=1;startSize=20;fillColor=#ffffff;horizontalStack=0;resizeParent=1;resizeParentMax=0;resizeLast=0;collapsible=0;marginBottom=0;swimlaneFillColor=#ffffff;" vertex="1" parent="1">
          <mxGeometry x="330" y="-480" width="100" height="80" as="geometry" />
        </mxCell>
        <mxCell id="I4A1Ht3evNtOGpzTNkZh-33" value="Сохранение полученных результатов анализов" style="html=1;dashed=0;whiteSpace=wrap;shape=partialRectangle;right=0;" vertex="1" parent="I4A1Ht3evNtOGpzTNkZh-32">
          <mxGeometry y="20" width="100" height="60" as="geometry" />
        </mxCell>
        <mxCell id="I4A1Ht3evNtOGpzTNkZh-34" value="Результаты анализов клиентов" style="html=1;dashed=0;whiteSpace=wrap;shape=partialRectangle;right=0;fontSize=12;fillColor=#f8cecc;strokeColor=#b85450;" vertex="1" parent="1">
          <mxGeometry x="320" y="-590" width="120" height="50" as="geometry" />
        </mxCell>
        <mxCell id="I4A1Ht3evNtOGpzTNkZh-35" value="2.3" style="swimlane;fontStyle=0;childLayout=stackLayout;horizontal=1;startSize=20;fillColor=#ffffff;horizontalStack=0;resizeParent=1;resizeParentMax=0;resizeLast=0;collapsible=0;marginBottom=0;swimlaneFillColor=#ffffff;" vertex="1" parent="1">
          <mxGeometry x="330" y="-330" width="100" height="80" as="geometry" />
        </mxCell>
        <mxCell id="I4A1Ht3evNtOGpzTNkZh-36" value="Учет медицинских карт" style="html=1;dashed=0;whiteSpace=wrap;shape=partialRectangle;right=0;" vertex="1" parent="I4A1Ht3evNtOGpzTNkZh-35">
          <mxGeometry y="20" width="100" height="60" as="geometry" />
        </mxCell>
        <mxCell id="I4A1Ht3evNtOGpzTNkZh-37" value="Медицинские карты клиентов" style="html=1;dashed=0;whiteSpace=wrap;shape=partialRectangle;right=0;fontSize=12;fillColor=#f8cecc;strokeColor=#b85450;" vertex="1" parent="1">
          <mxGeometry x="320" y="-190" width="120" height="50" as="geometry" />
        </mxCell>
        <mxCell id="I4A1Ht3evNtOGpzTNkZh-38" style="edgeStyle=orthogonalEdgeStyle;rounded=0;orthogonalLoop=1;jettySize=auto;html=1;exitX=1;exitY=0;exitDx=0;exitDy=0;entryX=0;entryY=0.25;entryDx=0;entryDy=0;" edge="1" parent="1" source="I4A1Ht3evNtOGpzTNkZh-33" target="I4A1Ht3evNtOGpzTNkZh-16">
          <mxGeometry relative="1" as="geometry">
            <Array as="points">
              <mxPoint x="470" y="-460" />
              <mxPoint x="470" y="-380" />
            </Array>
          </mxGeometry>
        </mxCell>
        <mxCell id="I4A1Ht3evNtOGpzTNkZh-39" style="edgeStyle=orthogonalEdgeStyle;rounded=0;orthogonalLoop=1;jettySize=auto;html=1;exitX=1;exitY=0;exitDx=0;exitDy=0;entryX=0;entryY=0.75;entryDx=0;entryDy=0;" edge="1" parent="1" source="I4A1Ht3evNtOGpzTNkZh-36" target="I4A1Ht3evNtOGpzTNkZh-16">
          <mxGeometry relative="1" as="geometry">
            <Array as="points">
              <mxPoint x="470" y="-310" />
              <mxPoint x="470" y="-350" />
            </Array>
          </mxGeometry>
        </mxCell>
        <mxCell id="I4A1Ht3evNtOGpzTNkZh-40" style="edgeStyle=orthogonalEdgeStyle;rounded=0;orthogonalLoop=1;jettySize=auto;html=1;exitX=0.5;exitY=1;exitDx=0;exitDy=0;entryX=0.5;entryY=0;entryDx=0;entryDy=0;" edge="1" parent="1" source="I4A1Ht3evNtOGpzTNkZh-36" target="I4A1Ht3evNtOGpzTNkZh-37">
          <mxGeometry relative="1" as="geometry" />
        </mxCell>
        <mxCell id="I4A1Ht3evNtOGpzTNkZh-41" style="edgeStyle=orthogonalEdgeStyle;rounded=0;orthogonalLoop=1;jettySize=auto;html=1;exitX=0;exitY=0.75;exitDx=0;exitDy=0;entryX=1;entryY=0.75;entryDx=0;entryDy=0;" edge="1" parent="1" source="I4A1Ht3evNtOGpzTNkZh-27" target="I4A1Ht3evNtOGpzTNkZh-16">
          <mxGeometry relative="1" as="geometry" />
        </mxCell>
        <mxCell id="I4A1Ht3evNtOGpzTNkZh-43" value="" style="edgeStyle=orthogonalEdgeStyle;rounded=0;orthogonalLoop=1;jettySize=auto;html=1;" edge="1" parent="1" source="I4A1Ht3evNtOGpzTNkZh-42" target="I4A1Ht3evNtOGpzTNkZh-10">
          <mxGeometry relative="1" as="geometry" />
        </mxCell>
        <mxCell id="I4A1Ht3evNtOGpzTNkZh-42" value="Шифрование +&amp;nbsp;&lt;br&gt;тег &quot;PII&quot;" style="html=1;dashed=0;whiteSpace=wrap;shape=partialRectangle;right=0;fillColor=#dae8fc;strokeColor=#6c8ebf;" vertex="1" parent="1">
          <mxGeometry x="140" y="-110" width="120" height="50" as="geometry" />
        </mxCell>
        <mxCell id="I4A1Ht3evNtOGpzTNkZh-46" value="" style="edgeStyle=orthogonalEdgeStyle;rounded=0;orthogonalLoop=1;jettySize=auto;html=1;" edge="1" parent="1" source="I4A1Ht3evNtOGpzTNkZh-44" target="I4A1Ht3evNtOGpzTNkZh-37">
          <mxGeometry relative="1" as="geometry" />
        </mxCell>
        <mxCell id="I4A1Ht3evNtOGpzTNkZh-44" value="Обезличивание +&lt;br&gt;тег &quot;PHI&quot;" style="html=1;dashed=0;whiteSpace=wrap;shape=partialRectangle;right=0;fillColor=#dae8fc;strokeColor=#6c8ebf;" vertex="1" parent="1">
          <mxGeometry x="320" y="-110" width="120" height="50" as="geometry" />
        </mxCell>
        <mxCell id="I4A1Ht3evNtOGpzTNkZh-48" value="" style="edgeStyle=orthogonalEdgeStyle;rounded=0;orthogonalLoop=1;jettySize=auto;html=1;" edge="1" parent="1" source="I4A1Ht3evNtOGpzTNkZh-47" target="I4A1Ht3evNtOGpzTNkZh-34">
          <mxGeometry relative="1" as="geometry" />
        </mxCell>
        <mxCell id="I4A1Ht3evNtOGpzTNkZh-47" value="Обезличивание +&amp;nbsp;&lt;br&gt;тег &quot;Клинические данные&quot;" style="html=1;dashed=0;whiteSpace=wrap;shape=partialRectangle;right=0;fillColor=#dae8fc;strokeColor=#6c8ebf;" vertex="1" parent="1">
          <mxGeometry x="320" y="-670" width="120" height="50" as="geometry" />
        </mxCell>
      </root>
    </mxGraphModel>
  </diagram>
</mxfile>
